<svg width="113" height="17" viewBox="0 0 113 17" fill="none" xmlns="http://www.w3.org/2000/svg">
<path d="M4.96 15.62C4.96 16.4067 4.19333 16.8 2.66 16.8C2.32667 16.8 2.12667 16.6333 2.06 16.3C2.00667 15.9533 1.98 15.4867 1.98 14.9C1.98 13.7533 2.28 12.0533 2.88 9.8C3.48 7.54667 4.08667 5.74 4.7 4.38C3.27333 4.40667 2.20667 4.68667 1.5 5.22C1.28667 5.38 1.11333 5.52667 0.98 5.66C0.846667 5.78 0.726667 5.84 0.62 5.84C0.526667 5.84 0.433333 5.76667 0.34 5.62C0.246667 5.46 0.2 5.27333 0.2 5.06C0.2 4.32667 0.526667 3.76 1.18 3.36C2.11333 2.8 3.44 2.42667 5.16 2.24C5.92 2.16 6.61333 2.12 7.24 2.12H7.28C7.37333 2.12 7.5 2.17333 7.66 2.28C7.83333 2.38667 7.92 2.56 7.92 2.8C7.92 3.04 7.87333 3.31333 7.78 3.62C7.7 3.91333 7.58667 4.13333 7.44 4.28C7.36 4.92 7.18667 5.68667 6.92 6.58C6.65333 7.47333 6.37333 8.42667 6.08 9.44C5.33333 12.0533 4.96 14.1133 4.96 15.62ZM14.84 11.78C15.0667 11.78 15.18 12.0867 15.18 12.7C15.18 13.0333 15.04 13.44 14.76 13.92C14.48 14.3867 14.1133 14.82 13.66 15.22C13.22 15.6067 12.7267 15.9267 12.18 16.18C11.6333 16.4333 11.1133 16.56 10.62 16.56C10.1267 16.56 9.74 16.4667 9.46 16.28C9.18 16.0933 8.96 15.84 8.8 15.52C8.57333 15.0667 8.38667 14.2067 8.24 12.94C8.09333 11.66 7.94667 10.7667 7.8 10.26C7.45333 10.1933 7.14667 10.06 6.88 9.86C6.62667 9.64667 6.5 9.39333 6.5 9.1C6.5 8.79333 6.63333 8.57333 6.9 8.44C7.18 8.30667 7.49333 8.24 7.84 8.24C8.18667 8.24 8.49333 8.32 8.76 8.48C9.48 7.70667 10.1333 6.69333 10.72 5.44C10.9867 4.86667 11.24 4.28 11.48 3.68C11.7333 3.06667 11.9933 2.44 12.26 1.8C12.3267 1.64 12.4667 1.54667 12.68 1.52C12.9067 1.48 13.2 1.46 13.56 1.46C13.92 1.46 14.1733 1.58 14.32 1.82C14.4667 2.04667 14.54 2.42667 14.54 2.96C14.54 3.48 14.4 4.08 14.12 4.76C13.84 5.44 13.48 6.1 13.04 6.74C12.12 8.08667 11.06 9.1 9.86 9.78C10.0733 10.22 10.2467 10.7067 10.38 11.24C10.5133 11.76 10.64 12.2467 10.76 12.7C10.88 13.14 11.0133 13.5133 11.16 13.82C11.32 14.1133 11.5133 14.26 11.74 14.26C11.9667 14.26 12.2333 14.1333 12.54 13.88C12.86 13.6133 13.1733 13.3267 13.48 13.02C13.7867 12.7133 14.06 12.4333 14.3 12.18C14.5533 11.9133 14.7333 11.78 14.84 11.78ZM16.5742 16.56C15.2409 16.56 14.5742 15.3133 14.5742 12.82C14.5742 11.46 14.7409 10.2267 15.0742 9.12C15.5942 7.41333 16.1809 6.56 16.8342 6.56C17.2209 6.56 17.5276 6.82 17.7542 7.34C17.9409 7.74 18.0276 8.13333 18.0142 8.52C18.0142 9.05333 17.8542 9.99333 17.5342 11.34C17.2276 12.5133 17.0742 13.24 17.0742 13.52C17.0742 13.8 17.1409 13.9933 17.2742 14.1C17.4209 14.2067 17.5876 14.26 17.7742 14.26C17.9742 14.26 18.2209 14.1333 18.5142 13.88C18.8076 13.6267 19.1009 13.3533 19.3942 13.06C19.6876 12.7533 19.9542 12.4733 20.1942 12.22C20.4476 11.9667 20.6209 11.84 20.7142 11.84C20.9009 11.84 20.9942 12.0667 20.9942 12.52C20.9942 13.4533 20.5209 14.3667 19.5742 15.26C18.6409 16.14 17.6409 16.5733 16.5742 16.56ZM17.3942 4.94C17.0342 4.40667 16.8542 3.83333 16.8542 3.22C16.8542 2.60667 16.9476 2.1 17.1342 1.7C17.3342 1.28667 17.5209 0.986666 17.6942 0.799999C17.8676 0.6 18.0676 0.5 18.2942 0.5C18.6676 0.5 19.0076 0.78 19.3142 1.34C19.6209 1.88667 19.7742 2.34667 19.7742 2.72C19.7742 3.41333 19.5276 3.96 19.0342 4.36C18.5542 4.74667 18.0076 4.94 17.3942 4.94ZM22.9145 13.14L23.0345 15.58C23.0345 15.9 22.8679 16.1867 22.5345 16.44C22.2012 16.6933 21.7479 16.82 21.1745 16.82C20.8412 16.82 20.6079 16.6467 20.4745 16.3C20.3545 15.9533 20.2945 15.4467 20.2945 14.78C20.2945 13.38 20.3612 12.2867 20.4945 11.5C20.6412 10.7 20.9212 9.89333 21.3345 9.08C20.7212 8.49333 20.4145 7.98667 20.4145 7.56C20.4145 6.66667 20.8945 6.22 21.8545 6.22C22.3479 6.22 22.7812 6.48 23.1545 7C23.4212 7.36 23.6145 7.78 23.7345 8.26C23.9212 8.32667 24.1545 8.36 24.4345 8.36C24.8212 8.36 25.2679 8.23333 25.7745 7.98L26.2945 7.72C26.4545 7.64 26.5945 7.6 26.7145 7.6C27.1012 7.6 27.4879 8.16667 27.8745 9.3C27.7545 9.82 27.6212 10.32 27.4745 10.8C27.3412 11.28 27.1812 11.86 26.9945 12.54C26.8079 13.22 26.7079 13.68 26.6945 13.92C26.6945 14.1467 26.7679 14.26 26.9145 14.26C27.1145 14.26 27.3612 14.1333 27.6545 13.88C27.9479 13.6267 28.2412 13.3533 28.5345 13.06C28.8279 12.7533 29.0945 12.4733 29.3345 12.22C29.5879 11.9667 29.7612 11.84 29.8545 11.84C30.0412 11.84 30.1345 12.0667 30.1345 12.52C30.1345 13.44 29.7279 14.3467 28.9145 15.24C28.1145 16.1333 27.1945 16.5733 26.1545 16.56C25.5412 16.56 25.0812 16.3133 24.7745 15.82C24.4679 15.3267 24.3079 14.7267 24.2945 14.02C24.2945 12.62 24.6079 11.2933 25.2345 10.04C24.9412 10.16 24.6079 10.22 24.2345 10.22C23.8745 10.22 23.6145 10.2067 23.4545 10.18C23.3345 10.6867 23.2145 11.2 23.0945 11.72C22.9745 12.2267 22.9145 12.7 22.9145 13.14ZM30.0152 15.42C29.8685 15.06 29.7618 14.6467 29.6952 14.18C29.6285 13.7 29.5952 13.0333 29.5952 12.18C29.5952 11.3267 29.7552 10.1733 30.0752 8.72H29.1752C29.0152 8.72 28.9352 8.65333 28.9352 8.52C28.9352 8.2 28.9618 7.94 29.0152 7.74C29.0818 7.52667 29.2285 7.28667 29.4552 7.02H29.9352C30.1218 7.02 30.3218 7.01333 30.5352 7C31.1752 4.94667 31.8285 3.92 32.4952 3.92C33.0285 3.93333 33.4018 4.27333 33.6152 4.94C33.6685 5.12667 33.7285 5.32667 33.7952 5.54L32.9752 6.98C33.9085 7.00667 34.4952 7.02 34.7352 7.02C34.9885 7.02 35.1218 7.04667 35.1352 7.1C35.1618 7.14 35.1752 7.20667 35.1752 7.3C35.1752 7.54 35.1152 7.84 34.9952 8.2C34.8885 8.56 34.7618 8.73333 34.6152 8.72L32.6152 8.62C32.3352 10.2467 32.1952 11.5933 32.1952 12.66C32.1952 13.7267 32.3485 14.26 32.6552 14.26C32.9085 14.26 33.3685 14.0533 34.0352 13.64C34.7018 13.2133 35.1818 12.8067 35.4752 12.42C35.7685 12.0333 36.0085 11.84 36.1952 11.84C36.3818 11.84 36.4752 12.0667 36.4752 12.52C36.4752 12.9733 36.3152 13.44 35.9952 13.92C35.6752 14.3867 35.2685 14.82 34.7752 15.22C34.2952 15.6067 33.7552 15.9267 33.1552 16.18C32.5685 16.4333 32.0552 16.56 31.6152 16.56C31.1752 16.56 30.8352 16.46 30.5952 16.26C30.3685 16.0467 30.1752 15.7667 30.0152 15.42ZM47.7628 11.78C48.0028 11.78 48.1228 12.0867 48.1228 12.7C48.1228 13.0333 47.9828 13.44 47.7028 13.92C47.4228 14.3867 47.0561 14.82 46.6028 15.22C46.1628 15.6067 45.6695 15.9267 45.1228 16.18C44.5761 16.4333 44.0428 16.56 43.5228 16.56C42.8161 16.56 42.3428 15.94 42.1028 14.7C41.7561 15.2733 41.3028 15.7467 40.7428 16.12C40.1828 16.48 39.4295 16.66 38.4828 16.66C37.5495 16.66 36.7961 16.3667 36.2228 15.78C35.6495 15.1933 35.3695 14.48 35.3828 13.64C35.3828 11.3733 36.1361 9.58667 37.6428 8.28C38.2828 7.73333 38.8761 7.37333 39.4228 7.2C39.9828 7.02667 40.5695 6.94 41.1828 6.94C41.7961 6.94 42.2961 7.04667 42.6828 7.26C42.8695 6.87333 43.0828 6.68 43.3228 6.68C43.7895 6.68 44.2295 6.88667 44.6428 7.3C45.0695 7.7 45.2828 8.08 45.2828 8.44C45.0961 8.88 44.8228 9.40667 44.4628 10.02C44.3561 10.6333 44.3028 11.4933 44.3028 12.6C44.3028 13.7067 44.4428 14.26 44.7228 14.26C45.0695 14.26 45.9095 13.5667 47.2428 12.18C47.4828 11.9133 47.6561 11.78 47.7628 11.78ZM38.3228 12.98C38.3228 14.0067 38.7028 14.52 39.4628 14.52C40.2761 14.5067 40.9495 14.0733 41.4828 13.22C41.6695 12.9267 41.8228 12.5667 41.9428 12.14C41.9428 10.6467 42.0761 9.36667 42.3428 8.3C41.2628 8.51333 40.3228 9.03333 39.5228 9.86C38.7228 10.6867 38.3228 11.7267 38.3228 12.98ZM49.7834 6.52C50.2634 6.52 50.7168 6.98 51.1434 7.9C51.7701 7.24667 52.5434 6.92 53.4634 6.92C54.3968 6.92 55.0968 7.12667 55.5634 7.54C56.0301 7.94 56.2634 8.51333 56.2634 9.26C56.2634 9.99333 56.1634 10.74 55.9634 11.5C55.7768 12.26 55.6368 12.8067 55.5434 13.14C55.4634 13.46 55.4234 13.7267 55.4234 13.94C55.4234 14.1533 55.4968 14.26 55.6434 14.26C55.8434 14.26 56.0901 14.1333 56.3834 13.88C56.6768 13.6267 56.9701 13.3533 57.2634 13.06C57.5568 12.7533 57.8234 12.4733 58.0634 12.22C58.3168 11.9667 58.4901 11.84 58.5834 11.84C58.7701 11.84 58.8634 12.0667 58.8634 12.52C58.8634 13.4533 58.4034 14.3533 57.4834 15.22C55.9368 16.1267 54.9501 16.58 54.5234 16.58C54.4834 16.58 54.4568 16.5733 54.4434 16.56C53.3768 16.56 52.8434 15.7067 52.8434 14C52.8434 13.2667 52.9101 12.5933 53.0434 11.98C53.1901 11.3667 53.2968 10.92 53.3634 10.64C53.4301 10.36 53.4634 10.0733 53.4634 9.78C53.4634 9.3 53.1834 9.06 52.6234 9.06C52.0768 9.06 51.5501 9.47333 51.0434 10.3C50.5501 11.1133 50.2168 11.96 50.0434 12.84V12.98C50.0434 13.4333 50.1101 13.9 50.2434 14.38C50.3901 14.86 50.4634 15.1933 50.4634 15.38C50.4634 15.8333 49.8968 16.28 48.7634 16.72C48.5901 16.7867 48.4368 16.82 48.3034 16.82C47.9701 16.82 47.7368 16.6467 47.6034 16.3C47.4834 15.9533 47.4234 15.4133 47.4234 14.68C47.4234 12.7867 47.4968 11.42 47.6434 10.58C47.8434 9.32667 48.2968 8.16 49.0034 7.08C49.2434 6.70667 49.5034 6.52 49.7834 6.52ZM85.5534 11.78C85.7801 11.78 85.8934 12.0867 85.8934 12.7C85.8934 13.0333 85.7534 13.44 85.4734 13.92C85.1934 14.3867 84.8268 14.82 84.3734 15.22C83.9334 15.6067 83.4401 15.9267 82.8934 16.18C82.3468 16.4333 81.7668 16.56 81.1534 16.56C80.5534 16.56 80.0801 16.3667 79.7334 15.98C79.4001 15.58 79.2334 15.14 79.2334 14.66C79.2334 14.1667 79.3134 13.6133 79.4734 13C79.6334 12.3867 79.8068 11.7467 79.9934 11.08C80.5001 9.30667 80.7601 8.06 80.7734 7.34C80.7734 7.03333 80.7334 6.8 80.6534 6.64C80.5734 6.46667 80.4201 6.38 80.1934 6.38C79.7934 6.38 79.3668 6.62 78.9134 7.1C78.4601 7.58 78.0334 8.19333 77.6334 8.94C76.7134 10.6467 76.2268 12.3133 76.1734 13.94C76.2001 14.1267 76.2268 14.3133 76.2534 14.5C76.2801 14.6867 76.2934 14.8867 76.2934 15.1C76.2934 15.5267 76.0801 15.92 75.6534 16.28C75.2401 16.6267 74.7734 16.8 74.2534 16.8C73.9468 16.8 73.7201 16.6533 73.5734 16.36C73.4268 16.0533 73.3534 15.68 73.3534 15.24C73.3534 14.8 73.4534 14.2 73.6534 13.44C73.8534 12.68 74.0734 11.8733 74.3134 11.02C74.9534 8.76667 75.2801 7.08667 75.2934 5.98C75.2934 5.42 75.2201 4.98 75.0734 4.66C74.9401 4.34 74.6734 4.18 74.2734 4.18C73.5534 4.18 72.8401 4.69333 72.1334 5.72C71.4268 6.74667 70.7934 8.34 70.2334 10.5C70.0868 11.06 69.9734 11.5467 69.8934 11.96L69.8734 12.34C70.1268 13.5667 70.2534 14.3667 70.2534 14.74C70.2534 15.5133 69.9801 16.0333 69.4334 16.3C69.1801 16.42 68.9334 16.5333 68.6934 16.64C68.4668 16.7467 68.2201 16.8 67.9534 16.8C67.2868 16.8 66.9534 16.1667 66.9534 14.9C66.9534 13.62 67.3068 11.1267 68.0134 7.42C68.2668 6.08667 68.3934 5.34 68.3934 5.18C68.3934 4.1 68.1201 3.56 67.5734 3.56C67.3868 3.56 67.2134 3.61333 67.0534 3.72C66.9068 3.82667 66.7534 3.94 66.5934 4.06C66.4468 4.18 66.2934 4.29333 66.1334 4.4C65.9734 4.50667 65.7868 4.56 65.5734 4.56C65.3734 4.56 65.2734 4.38 65.2734 4.02C65.2734 3.28667 65.6134 2.68667 66.2934 2.22C66.9468 1.74 67.7401 1.5 68.6734 1.5C69.8734 1.5 70.5801 2.06 70.7934 3.18C70.8468 3.51333 70.8868 3.86667 70.9134 4.24C71.9001 2.38667 73.1468 1.46 74.6534 1.46C76.2934 1.46 77.2334 2.24667 77.4734 3.82C77.5534 4.27333 77.5868 4.76 77.5734 5.28V5.44C78.4401 4.24 79.4668 3.64 80.6534 3.64C82.3334 3.64 83.1734 4.65333 83.1734 6.68C83.1734 7.56 83.0334 8.59333 82.7534 9.78C82.4868 10.9533 82.2868 11.8 82.1534 12.32C82.0334 12.8267 81.9734 13.22 81.9734 13.5C81.9734 14.0067 82.1468 14.26 82.4934 14.26C82.8534 14.26 83.7001 13.5667 85.0334 12.18C85.2734 11.9133 85.4468 11.78 85.5534 11.78ZM97.1769 11.78C97.4169 11.78 97.5369 12.0867 97.5369 12.7C97.5369 13.0333 97.3969 13.44 97.1169 13.92C96.8369 14.3867 96.4702 14.82 96.0169 15.22C95.5769 15.6067 95.0835 15.9267 94.5369 16.18C93.9902 16.4333 93.4569 16.56 92.9369 16.56C92.2302 16.56 91.7569 15.94 91.5169 14.7C91.1702 15.2733 90.7169 15.7467 90.1569 16.12C89.5969 16.48 88.8435 16.66 87.8969 16.66C86.9635 16.66 86.2102 16.3667 85.6369 15.78C85.0635 15.1933 84.7835 14.48 84.7969 13.64C84.7969 11.3733 85.5502 9.58667 87.0569 8.28C87.6969 7.73333 88.2902 7.37333 88.8369 7.2C89.3969 7.02667 89.9835 6.94 90.5969 6.94C91.2102 6.94 91.7102 7.04667 92.0969 7.26C92.2835 6.87333 92.4969 6.68 92.7369 6.68C93.2035 6.68 93.6435 6.88667 94.0569 7.3C94.4835 7.7 94.6969 8.08 94.6969 8.44C94.5102 8.88 94.2369 9.40667 93.8769 10.02C93.7702 10.6333 93.7169 11.4933 93.7169 12.6C93.7169 13.7067 93.8569 14.26 94.1369 14.26C94.4835 14.26 95.3235 13.5667 96.6569 12.18C96.8969 11.9133 97.0702 11.78 97.1769 11.78ZM87.7369 12.98C87.7369 14.0067 88.1169 14.52 88.8769 14.52C89.6902 14.5067 90.3635 14.0733 90.8969 13.22C91.0835 12.9267 91.2369 12.5667 91.3569 12.14C91.3569 10.6467 91.4902 9.36667 91.7569 8.3C90.6769 8.51333 89.7369 9.03333 88.9369 9.86C88.1369 10.6867 87.7369 11.7267 87.7369 12.98ZM97.4175 15.42C97.2708 15.06 97.1642 14.6467 97.0975 14.18C97.0308 13.7 96.9975 13.0333 96.9975 12.18C96.9975 11.3267 97.1575 10.1733 97.4775 8.72H96.5775C96.4175 8.72 96.3375 8.65333 96.3375 8.52C96.3375 8.2 96.3642 7.94 96.4175 7.74C96.4842 7.52667 96.6308 7.28667 96.8575 7.02H97.3375C97.5242 7.02 97.7242 7.01333 97.9375 7C98.5775 4.94667 99.2308 3.92 99.8975 3.92C100.431 3.93333 100.804 4.27333 101.018 4.94C101.071 5.12667 101.131 5.32667 101.198 5.54L100.378 6.98C101.311 7.00667 101.898 7.02 102.138 7.02C102.391 7.02 102.524 7.04667 102.538 7.1C102.564 7.14 102.578 7.20667 102.578 7.3C102.578 7.54 102.518 7.84 102.398 8.2C102.291 8.56 102.164 8.73333 102.018 8.72L100.018 8.62C99.7375 10.2467 99.5975 11.5933 99.5975 12.66C99.5975 13.7267 99.7508 14.26 100.058 14.26C100.311 14.26 100.771 14.0533 101.438 13.64C102.104 13.2133 102.584 12.8067 102.878 12.42C103.171 12.0333 103.411 11.84 103.598 11.84C103.784 11.84 103.878 12.0667 103.878 12.52C103.878 12.9733 103.718 13.44 103.398 13.92C103.078 14.3867 102.671 14.82 102.178 15.22C101.698 15.6067 101.158 15.9267 100.558 16.18C99.9708 16.4333 99.4575 16.56 99.0175 16.56C98.5775 16.56 98.2375 16.46 97.9975 16.26C97.7708 16.0467 97.5775 15.7667 97.4175 15.42ZM107.545 14.32C108.585 14.32 109.592 13.9067 110.565 13.08C110.925 12.7733 111.218 12.4933 111.445 12.24C111.672 11.9733 111.845 11.84 111.965 11.84C112.152 11.84 112.245 12.0267 112.245 12.4C112.245 12.7733 112.145 13.1933 111.945 13.66C111.745 14.1133 111.412 14.56 110.945 15C109.798 16.08 108.225 16.62 106.225 16.62C104.638 16.62 103.558 16.0467 102.985 14.9C102.785 14.5 102.685 13.9267 102.685 13.18C102.685 12.4333 102.832 11.66 103.125 10.86C103.418 10.0467 103.805 9.34667 104.285 8.76C104.778 8.17333 105.345 7.72 105.985 7.4C106.625 7.06667 107.305 6.9 108.025 6.9C108.758 6.9 109.318 7.08 109.705 7.44C110.105 7.8 110.305 8.26667 110.305 8.84C110.305 9.41333 110.158 9.88667 109.865 10.26C109.585 10.62 109.218 10.9267 108.765 11.18C108.312 11.42 107.805 11.64 107.245 11.84C106.698 12.0267 106.158 12.24 105.625 12.48V12.98C105.638 13.46 105.838 13.8 106.225 14C106.612 14.2 107.052 14.3067 107.545 14.32ZM107.205 8.68C106.512 8.68 106.032 9.48667 105.765 11.1C106.045 10.9133 106.305 10.7467 106.545 10.6C106.798 10.4533 107.018 10.3133 107.205 10.18C107.605 9.88667 107.812 9.55333 107.825 9.18C107.825 8.84667 107.618 8.68 107.205 8.68Z" fill="#F5C149"/>
</svg>
