<svg width="130" height="28" viewBox="0 0 130 28" fill="none" xmlns="http://www.w3.org/2000/svg">
<path d="M32.044 27.31C31.0907 27.31 30.2067 27.0933 29.392 26.66C28.5947 26.2267 27.884 25.6373 27.26 24.892C26.636 24.164 26.116 23.3407 25.7 22.422C25.3533 21.642 25.0673 20.8533 24.842 20.056C24.634 19.2587 24.478 18.5133 24.374 17.82C24.27 17.1267 24.218 16.5547 24.218 16.104C24.218 15.5493 24.2787 15.2373 24.4 15.168C24.7293 15.2027 25.2753 15.064 26.038 14.752C26.818 14.44 27.7367 13.9807 28.794 13.374C29.8687 12.7673 31.0213 12.0393 32.252 11.19C33.5 10.3233 34.748 9.35267 35.996 8.278C37.2613 7.20333 38.4747 6.042 39.636 4.794C40.7973 3.546 41.82 2.23733 42.704 0.868C42.912 0.538666 43.1113 0.374 43.302 0.374C43.458 0.374 43.536 0.469333 43.536 0.659999C43.536 0.815999 43.4753 0.989332 43.354 1.18C42.522 2.56667 41.534 3.92733 40.39 5.262C39.246 6.57933 38.024 7.81867 36.724 8.98C35.424 10.1413 34.1153 11.19 32.798 12.126C31.498 13.062 30.25 13.842 29.054 14.466C27.8753 15.09 26.8353 15.5147 25.934 15.74C25.882 15.7053 25.856 15.792 25.856 16C25.856 16.2947 25.9167 16.7713 26.038 17.43C26.1593 18.0713 26.3413 18.808 26.584 19.64C26.844 20.4547 27.156 21.2867 27.52 22.136C28.0747 23.436 28.7333 24.4327 29.496 25.126C30.276 25.8367 31.1687 26.192 32.174 26.192C32.85 26.192 33.5433 26.088 34.254 25.88C34.9647 25.6893 35.6147 25.386 36.204 24.97C36.7933 24.5713 37.2527 24.06 37.582 23.436C37.686 23.1933 37.8073 23.072 37.946 23.072C38.0153 23.072 38.05 23.124 38.05 23.228C38.05 23.3493 38.0067 23.488 37.92 23.644C37.608 24.2853 37.1313 24.8833 36.49 25.438C35.8487 25.9927 35.1293 26.4433 34.332 26.79C33.552 27.1367 32.7893 27.31 32.044 27.31ZM10.048 26.972C8.86933 26.972 7.72533 26.8073 6.616 26.478C5.524 26.166 4.536 25.698 3.652 25.074C2.78533 24.45 2.092 23.6873 1.572 22.786C1.06933 21.8847 0.818 20.862 0.818 19.718C0.818 19.406 0.844 19.0853 0.896 18.756C0.948 18.4093 1.01733 18.054 1.104 17.69C1.27733 17.066 1.55467 16.5287 1.936 16.078C2.33467 15.61 2.742 15.246 3.158 14.986C3.574 14.7087 3.886 14.5613 4.094 14.544H4.172C4.34533 14.544 4.432 14.596 4.432 14.7C4.432 14.7867 4.38867 14.856 4.302 14.908C4.146 14.9773 3.87733 15.1767 3.496 15.506C3.132 15.818 2.768 16.26 2.404 16.832C2.04 17.3867 1.806 18.054 1.702 18.834C1.65 19.1633 1.624 19.4753 1.624 19.77C1.624 20.81 1.84933 21.7027 2.3 22.448C2.75067 23.176 3.34 23.774 4.068 24.242C4.796 24.71 5.59333 25.048 6.46 25.256C7.32667 25.4813 8.176 25.594 9.008 25.594C9.33733 25.594 9.658 25.5767 9.97 25.542C10.282 25.5247 10.5767 25.4813 10.854 25.412C12.726 24.996 14.3467 24.3287 15.716 23.41C17.1027 22.4913 18.2987 21.434 19.304 20.238C20.3093 19.042 21.1587 17.8113 21.852 16.546C22.5627 15.2807 23.1607 14.0933 23.646 12.984C23.75 12.724 23.9233 12.3167 24.166 11.762C24.426 11.2073 24.712 10.5747 25.024 9.864C25.3533 9.15333 25.6827 8.434 26.012 7.706C26.3587 6.978 26.6707 6.31067 26.948 5.704C27.2253 5.09733 27.4507 4.62933 27.624 4.3C26.4627 4.43867 25.206 4.56867 23.854 4.69C22.5193 4.794 21.2453 5.01933 20.032 5.366C18.68 5.74733 17.5707 6.302 16.704 7.03C15.8547 7.758 15.222 8.55533 14.806 9.422C14.4073 10.2887 14.208 11.112 14.208 11.892C14.208 12.7413 14.4247 13.452 14.858 14.024C15.2913 14.596 15.8893 14.882 16.652 14.882C17.0333 14.882 17.4407 14.804 17.874 14.648C18.3767 14.4747 18.7927 14.1713 19.122 13.738C19.4513 13.2873 19.694 12.7847 19.85 12.23C20.0233 11.658 20.11 11.112 20.11 10.592C20.11 10.3147 20.084 10.046 20.032 9.786V9.734C20.032 9.66467 20.0667 9.63 20.136 9.63C20.2747 9.63 20.396 9.734 20.5 9.942C20.5867 10.1153 20.6387 10.306 20.656 10.514C20.6907 10.7047 20.708 10.8953 20.708 11.086C20.708 11.6407 20.5867 12.1953 20.344 12.75C20.1013 13.2873 19.7807 13.7727 19.382 14.206C18.9833 14.6393 18.5327 14.9513 18.03 15.142C17.7527 15.246 17.484 15.324 17.224 15.376C16.964 15.4107 16.7127 15.428 16.47 15.428C15.7247 15.428 15.0573 15.2373 14.468 14.856C13.896 14.4573 13.4453 13.9373 13.116 13.296C12.804 12.6547 12.648 11.9613 12.648 11.216C12.648 10.3667 12.882 9.50867 13.35 8.642C13.818 7.758 14.572 6.96067 15.612 6.25C16.652 5.522 18.0213 4.96733 19.72 4.586C21.1413 4.274 22.5887 4.07467 24.062 3.988C25.5353 3.884 26.8353 3.78 27.962 3.676C28.0313 3.572 28.17 3.37267 28.378 3.078C28.6033 2.78333 28.8547 2.48867 29.132 2.194C29.4267 1.882 29.7127 1.68267 29.99 1.596C30.1807 1.544 30.3453 1.518 30.484 1.518C30.796 1.518 31.0387 1.60467 31.212 1.778C31.4027 1.95133 31.498 2.15933 31.498 2.402C31.498 2.74867 31.2553 3.12133 30.77 3.52C30.302 3.90133 29.5047 4.15267 28.378 4.274C27.8233 5.29667 27.312 6.432 26.844 7.68C26.376 8.91067 25.908 10.202 25.44 11.554C24.9893 12.8887 24.4867 14.232 23.932 15.584C23.3947 16.9187 22.7793 18.21 22.086 19.458C21.3927 20.6887 20.5693 21.8153 19.616 22.838C18.68 23.8607 17.5707 24.7187 16.288 25.412C15.0227 26.1053 13.5493 26.582 11.868 26.842C11.5733 26.8767 11.27 26.9027 10.958 26.92C10.646 26.9547 10.3427 26.972 10.048 26.972ZM28.872 3.624C29.4093 3.53733 29.7907 3.43333 30.016 3.312C30.2587 3.17333 30.432 3.03467 30.536 2.896C30.6573 2.75733 30.718 2.636 30.718 2.532C30.718 2.35867 30.6313 2.272 30.458 2.272C30.302 2.272 30.1113 2.35867 29.886 2.532C29.7127 2.65333 29.5307 2.82667 29.34 3.052C29.1493 3.27733 28.9933 3.468 28.872 3.624ZM35.2782 11.944C35.0182 11.944 34.8015 11.8573 34.6282 11.684C34.4722 11.4933 34.3942 11.268 34.3942 11.008C34.3942 10.6787 34.5242 10.3927 34.7842 10.15C35.0442 9.90733 35.3302 9.786 35.6422 9.786C35.9195 9.786 36.1448 9.87267 36.3182 10.046C36.4915 10.2193 36.5782 10.4273 36.5782 10.67C36.5782 10.9993 36.4482 11.294 36.1882 11.554C35.9282 11.814 35.6248 11.944 35.2782 11.944ZM33.1722 22.5C32.5308 22.5 32.0802 22.318 31.8202 21.954C31.5602 21.5727 31.4302 21.1393 31.4302 20.654C31.4302 20.394 31.4562 20.134 31.5082 19.874C31.5775 19.5967 31.6555 19.3453 31.7422 19.12L33.4842 14.674C33.5362 14.5353 33.5622 14.414 33.5622 14.31C33.5622 14.1367 33.5188 13.9893 33.4322 13.868C33.3455 13.7293 33.2848 13.634 33.2502 13.582L34.6802 13.53C34.9402 13.5127 35.1222 13.5473 35.2262 13.634C35.3475 13.7033 35.4082 13.79 35.4082 13.894C35.4082 13.998 35.3475 14.1887 35.2262 14.466L33.0682 19.536C33.0682 19.536 33.0162 19.6487 32.9122 19.874C32.8255 20.082 32.7735 20.2207 32.7562 20.29C32.7042 20.55 32.6695 20.7147 32.6522 20.784C32.6348 20.8533 32.6262 20.8967 32.6262 20.914C32.6262 20.9313 32.6262 21.0007 32.6262 21.122C32.6262 21.3473 32.6782 21.538 32.7822 21.694C32.9035 21.85 33.1028 21.928 33.3802 21.928C33.5535 21.928 33.7528 21.876 33.9782 21.772C34.2035 21.668 34.3682 21.564 34.4722 21.46C34.9055 21.0093 35.3302 20.42 35.7462 19.692C36.1795 18.9467 36.5782 18.21 36.9422 17.482C37.0115 17.3087 37.0982 17.222 37.2022 17.222C37.2888 17.222 37.3322 17.2827 37.3322 17.404C37.3322 17.4733 37.3062 17.5773 37.2542 17.716C37.0808 18.08 36.8642 18.5307 36.6042 19.068C36.3442 19.6053 36.0322 20.1427 35.6682 20.68C35.3215 21.2 34.9402 21.6333 34.5242 21.98C34.1082 22.3267 33.6575 22.5 33.1722 22.5ZM40.0305 22.526C39.7011 22.526 39.3718 22.396 39.0425 22.136C38.7131 21.8587 38.5485 21.4167 38.5485 20.81C38.5485 20.342 38.6611 19.8047 38.8865 19.198C39.0945 18.6087 39.3718 18.0367 39.7185 17.482C40.0825 16.9273 40.3425 16.4767 40.4985 16.13C40.5505 15.9913 40.5765 15.87 40.5765 15.766C40.5765 15.454 40.3771 15.2287 39.9785 15.09C39.5971 14.9513 39.0945 14.8733 38.4705 14.856L38.1585 15.714C37.9678 16.2687 37.6991 16.9187 37.3525 17.664C37.0231 18.4093 36.6505 19.1287 36.2345 19.822C35.8358 20.5153 35.4198 21.07 34.9865 21.486C34.9518 21.5207 34.9085 21.538 34.8565 21.538C34.7871 21.538 34.7438 21.4947 34.7265 21.408C34.6918 21.3213 34.7265 21.2173 34.8305 21.096C35.5065 20.1947 36.1131 19.198 36.6505 18.106C37.1878 16.9967 37.6385 15.87 38.0025 14.726C38.3838 13.582 38.6611 12.5247 38.8345 11.554C38.8865 11.2767 38.9818 11.0773 39.1205 10.956C39.2591 10.8173 39.4065 10.748 39.5625 10.748C39.7878 10.748 39.9958 10.8607 40.1865 11.086C40.3771 11.294 40.4725 11.5973 40.4725 11.996C40.4725 12.0653 40.4638 12.1433 40.4465 12.23C40.4465 12.3167 40.4378 12.4033 40.4205 12.49C40.3511 12.854 40.1431 13.2007 39.7965 13.53C39.4671 13.842 39.1985 14.076 38.9905 14.232C39.1638 14.2493 39.3458 14.2667 39.5365 14.284C39.7271 14.284 39.9351 14.284 40.1605 14.284C40.9751 14.284 41.7811 14.232 42.5785 14.128C42.6131 14.232 42.6305 14.31 42.6305 14.362C42.6305 14.5873 42.5611 14.8733 42.4225 15.22C42.3011 15.5667 42.1711 15.8787 42.0325 16.156C41.9631 16.312 41.8245 16.598 41.6165 17.014C41.4085 17.4127 41.1831 17.872 40.9405 18.392C40.6978 18.8947 40.4898 19.3973 40.3165 19.9C40.1605 20.3853 40.0825 20.8013 40.0825 21.148C40.0825 21.5987 40.2558 21.824 40.6025 21.824C40.8625 21.824 41.1485 21.6593 41.4605 21.33C41.7725 20.9833 42.0758 20.5673 42.3705 20.082C42.6825 19.5793 42.9598 19.094 43.2025 18.626C43.4625 18.1407 43.6618 17.7593 43.8005 17.482C43.8698 17.3087 43.9651 17.222 44.0865 17.222C44.1558 17.222 44.1905 17.2827 44.1905 17.404C44.1905 17.4733 44.1645 17.5773 44.1125 17.716C43.9218 18.1147 43.6965 18.5653 43.4365 19.068C43.1765 19.5707 42.8818 20.0647 42.5525 20.55C42.2405 21.0353 41.8938 21.46 41.5125 21.824C41.1485 22.1707 40.7498 22.396 40.3165 22.5C40.2645 22.5173 40.1691 22.526 40.0305 22.526ZM44.9898 22.5C44.5044 22.5 44.0711 22.3353 43.6898 22.006C43.3084 21.6593 43.1178 21.122 43.1178 20.394C43.1178 19.822 43.2218 19.12 43.4298 18.288C43.6551 17.4387 43.9238 16.5633 44.2358 15.662C44.5651 14.7433 44.8858 13.9113 45.1978 13.166H43.8198C43.6984 13.166 43.6378 13.0793 43.6378 12.906C43.6378 12.8193 43.6551 12.7413 43.6898 12.672C43.7418 12.6027 43.8111 12.568 43.8978 12.568H45.4578C45.7524 11.9093 46.0644 11.268 46.3938 10.644C46.7231 10.02 47.0438 9.43067 47.3558 8.876C47.7544 8.18267 48.1791 7.66267 48.6298 7.316C49.0804 6.96933 49.4704 6.796 49.7998 6.796C50.0598 6.796 50.2764 6.9 50.4498 7.108C50.6231 7.29867 50.7098 7.59333 50.7098 7.992C50.7098 8.23467 50.6578 8.57267 50.5538 9.006C50.4498 9.422 50.2851 9.864 50.0598 10.332C49.9384 10.5747 49.7651 10.9213 49.5398 11.372C49.3318 11.8227 49.1238 12.2213 48.9158 12.568H50.1638C50.2851 12.568 50.3458 12.6547 50.3458 12.828C50.3458 12.8973 50.3284 12.9753 50.2938 13.062C50.2591 13.1313 50.2071 13.166 50.1378 13.166H48.6038C48.1704 13.9113 47.6764 14.6393 47.1218 15.35C46.5671 16.0607 45.9084 16.7713 45.1458 17.482C45.0938 17.638 45.0244 17.8633 44.9378 18.158C44.8684 18.4527 44.7991 18.756 44.7298 19.068C44.6778 19.3627 44.6258 19.614 44.5738 19.822C44.5391 20.03 44.5218 20.134 44.5218 20.134C44.4698 20.3593 44.4438 20.5673 44.4438 20.758C44.4438 21.122 44.5304 21.3907 44.7038 21.564C44.8771 21.72 45.0764 21.798 45.3018 21.798C45.4404 21.798 45.5791 21.7807 45.7178 21.746C45.8564 21.694 46.0124 21.6073 46.1858 21.486C46.7924 21.0527 47.3211 20.4633 47.7718 19.718C48.2398 18.9727 48.6471 18.2533 48.9938 17.56C49.0978 17.352 49.2018 17.248 49.3058 17.248C49.3751 17.248 49.4098 17.3 49.4098 17.404C49.4098 17.456 49.3838 17.5513 49.3318 17.69C48.9504 18.4873 48.6298 19.1287 48.3698 19.614C48.1098 20.0993 47.8584 20.5067 47.6158 20.836C47.3731 21.148 47.0871 21.46 46.7578 21.772C46.5151 22.0147 46.2378 22.1967 45.9258 22.318C45.6138 22.4393 45.3018 22.5 44.9898 22.5ZM47.0438 12.568H48.3698C48.6124 12.1173 48.8378 11.6753 49.0458 11.242C49.2711 10.8087 49.4704 10.3753 49.6438 9.942C49.7651 9.66467 49.8691 9.35267 49.9558 9.006C50.0424 8.65933 50.0858 8.39067 50.0858 8.2C50.0858 7.94 50.0251 7.81 49.9038 7.81C49.8171 7.81 49.6871 7.888 49.5138 8.044C49.3578 8.18267 49.1584 8.42533 48.9158 8.772C48.6038 9.20533 48.2918 9.76867 47.9798 10.462C47.6851 11.138 47.3731 11.84 47.0438 12.568ZM45.3538 16.65C45.8564 16.13 46.3244 15.5753 46.7578 14.986C47.2084 14.3967 47.6244 13.79 48.0058 13.166H46.7838C46.5064 13.8073 46.2464 14.4313 46.0038 15.038C45.7611 15.6447 45.5444 16.182 45.3538 16.65ZM54.5622 22.578C54.3716 22.5953 54.1549 22.552 53.9122 22.448C53.6696 22.344 53.4529 22.1533 53.2622 21.876C53.0889 21.5987 53.0022 21.2087 53.0022 20.706C53.0022 20.29 53.0802 19.7873 53.2362 19.198C53.0282 19.5273 52.7596 19.9347 52.4302 20.42C52.1009 20.888 51.7456 21.304 51.3642 21.668C51.0349 21.98 50.7229 22.2053 50.4282 22.344C50.1336 22.4827 49.8649 22.552 49.6222 22.552C49.1716 22.552 48.8076 22.3527 48.5302 21.954C48.2529 21.538 48.1142 21.0007 48.1142 20.342C48.1142 19.6487 48.2876 18.86 48.6342 17.976C48.9809 17.092 49.5442 16.1733 50.3242 15.22C50.8269 14.6133 51.4336 14.128 52.1442 13.764C52.8722 13.3827 53.5829 13.192 54.2762 13.192C54.6749 13.192 55.0562 13.2613 55.4202 13.4C55.7842 13.5213 56.1049 13.7293 56.3822 14.024C56.5036 14.1453 56.5642 14.284 56.5642 14.44C56.5642 14.544 56.5209 14.6307 56.4342 14.7C56.3476 14.7693 56.2349 14.7867 56.0962 14.752C55.9056 14.1453 55.4982 13.842 54.8742 13.842C54.5796 13.842 54.2416 13.9373 53.8602 14.128C53.2709 14.44 52.6556 14.9513 52.0142 15.662C51.3902 16.3727 50.8442 17.1093 50.3762 17.872C50.3069 17.976 50.1942 18.1753 50.0382 18.47C49.8996 18.7647 49.7609 19.094 49.6222 19.458C49.4836 19.822 49.3882 20.1773 49.3362 20.524C49.3189 20.628 49.3102 20.706 49.3102 20.758C49.3102 20.7927 49.3102 20.8533 49.3102 20.94C49.3102 21.512 49.5269 21.798 49.9602 21.798C50.4802 21.798 51.0696 21.4167 51.7282 20.654C52.1789 20.0993 52.5862 19.5187 52.9502 18.912C53.3142 18.3053 53.6869 17.6553 54.0682 16.962C54.3282 16.494 54.5709 16.104 54.7962 15.792C55.0216 15.48 55.3422 15.324 55.7582 15.324C55.9489 15.324 56.1396 15.35 56.3302 15.402C56.5209 15.454 56.7202 15.4627 56.9282 15.428C56.7896 15.5667 56.5989 15.8267 56.3562 16.208C56.1309 16.5893 55.8882 17.0227 55.6282 17.508C55.3682 17.9933 55.1342 18.4873 54.9262 18.99C54.7182 19.4927 54.5709 19.926 54.4842 20.29C54.4669 20.394 54.4409 20.5413 54.4062 20.732C54.3889 20.9227 54.3802 21.0613 54.3802 21.148C54.3802 21.6333 54.5189 21.876 54.7962 21.876C55.0736 21.876 55.3682 21.7113 55.6802 21.382C56.0096 21.0527 56.3302 20.6453 56.6422 20.16C56.9542 19.6747 57.2402 19.1893 57.5002 18.704C57.7602 18.2013 57.9682 17.794 58.1242 17.482C58.1936 17.3087 58.2976 17.222 58.4362 17.222C58.5229 17.222 58.5662 17.2827 58.5662 17.404C58.5662 17.456 58.5402 17.5513 58.4882 17.69C58.2802 18.1233 58.0289 18.6173 57.7342 19.172C57.4396 19.7093 57.1189 20.238 56.7722 20.758C56.4256 21.2607 56.0616 21.6853 55.6802 22.032C55.3162 22.3613 54.9436 22.5433 54.5622 22.578ZM55.6169 22.708C56.2409 21.4427 56.8389 20.1947 57.4109 18.964C58.0002 17.716 58.5982 16.5287 59.2049 15.402C59.5515 14.778 59.8375 14.3447 60.0629 14.102C60.3055 13.842 60.6262 13.712 61.0249 13.712C61.1635 13.712 61.3109 13.738 61.4669 13.79C61.6229 13.8247 61.7789 13.842 61.9349 13.842C62.0389 13.842 62.1169 13.8333 62.1689 13.816C61.9262 13.9547 61.6142 14.3013 61.2329 14.856C60.8515 15.3933 60.4615 16.0173 60.0629 16.728C59.6642 17.4387 59.3089 18.106 58.9969 18.73C59.3262 18.3313 59.6642 17.9327 60.0109 17.534C60.3749 17.1353 60.7735 16.754 61.2069 16.39C61.6229 16.026 62.1169 15.6533 62.6889 15.272C63.2782 14.8733 63.8502 14.544 64.4049 14.284C64.9595 14.024 65.4015 13.894 65.7309 13.894C65.8522 13.894 65.9389 13.9027 65.9909 13.92C65.9909 13.92 65.8955 14.0933 65.7049 14.44C65.5142 14.7693 65.2715 15.2113 64.9769 15.766C64.6995 16.3033 64.4135 16.884 64.1189 17.508C63.8242 18.1147 63.5555 18.704 63.3129 19.276C63.0875 19.8307 62.9402 20.2987 62.8709 20.68C62.8189 20.9053 62.7929 21.1133 62.7929 21.304C62.7929 21.5813 62.8449 21.7633 62.9489 21.85C63.0529 21.9367 63.1655 21.98 63.2869 21.98C63.6162 21.98 63.9629 21.8067 64.3269 21.46C64.6909 21.096 65.0375 20.654 65.3669 20.134C65.7135 19.614 66.0169 19.1113 66.2769 18.626C66.5542 18.1233 66.7535 17.742 66.8749 17.482C66.9442 17.3433 66.9962 17.2653 67.0309 17.248C67.0655 17.2133 67.1175 17.196 67.1869 17.196C67.2909 17.196 67.3429 17.2653 67.3429 17.404C67.3429 17.4907 67.3169 17.586 67.2649 17.69C67.0569 18.0887 66.8055 18.5653 66.5109 19.12C66.2335 19.6747 65.9129 20.2207 65.5489 20.758C65.1849 21.278 64.7862 21.72 64.3529 22.084C63.9195 22.4307 63.4515 22.604 62.9489 22.604C62.6022 22.604 62.2382 22.4827 61.8569 22.24C61.4929 21.9973 61.3109 21.5467 61.3109 20.888C61.3109 20.6973 61.3282 20.498 61.3629 20.29C61.3975 20.0647 61.4582 19.822 61.5449 19.562C61.6835 19.2153 61.8482 18.8427 62.0389 18.444C62.2295 18.0453 62.5415 17.4993 62.9749 16.806C63.0962 16.6153 63.1655 16.468 63.1829 16.364C63.2175 16.26 63.2349 16.1733 63.2349 16.104C63.2349 15.896 63.1395 15.792 62.9489 15.792C62.7929 15.792 62.5589 15.8787 62.2469 16.052C61.9522 16.2253 61.5795 16.5287 61.1289 16.962C60.6955 17.378 60.1755 17.9673 59.5689 18.73C58.9795 19.4927 58.2949 20.6193 57.5149 22.11C57.3935 22.3353 57.2549 22.4567 57.0989 22.474C56.9602 22.4913 56.7609 22.5087 56.5009 22.526C56.3275 22.5433 56.1629 22.552 56.0069 22.552C55.8509 22.5693 55.7209 22.6213 55.6169 22.708ZM107.609 25.49C107.349 25.4553 106.994 25.386 106.543 25.282C106.092 25.1953 105.633 25.0133 105.165 24.736C104.697 24.4587 104.298 24.034 103.969 23.462C103.64 22.9073 103.475 22.162 103.475 21.226C103.475 20.1513 103.692 18.9727 104.125 17.69C104.576 16.39 105.122 15.038 105.763 13.634C106.404 12.23 107.02 10.8433 107.609 9.474C108.077 8.382 108.311 7.55 108.311 6.978C108.311 6.406 108.094 6.12 107.661 6.12C107.176 6.12 106.448 6.51 105.477 7.29C104.524 8.05267 103.414 9.214 102.149 10.774C101.82 11.19 101.395 11.7707 100.875 12.516C100.355 13.244 99.8005 14.0587 99.2111 14.96C98.6218 15.844 98.0411 16.7453 97.4691 17.664C96.9145 18.5653 96.4205 19.3973 95.9871 20.16C95.5711 20.9227 95.2678 21.5293 95.0771 21.98C94.8518 22.5173 94.5918 22.8813 94.2971 23.072C94.0025 23.28 93.7251 23.384 93.4651 23.384C93.2398 23.384 93.0405 23.3233 92.8671 23.202C92.7111 23.0807 92.6331 22.9333 92.6331 22.76C92.6331 22.656 92.6591 22.5693 92.7111 22.5C92.8151 22.292 93.0925 21.7893 93.5431 20.992C93.9938 20.1947 94.5051 19.1373 95.0771 17.82C95.6491 16.4853 96.1951 14.9427 96.7151 13.192C97.2525 11.424 97.6511 9.474 97.9111 7.342C97.9458 7.09933 97.9631 6.83933 97.9631 6.562C97.9631 5.95533 97.8591 5.51333 97.6511 5.236C97.4431 4.94133 97.1658 4.794 96.8191 4.794C96.4378 4.794 96.0045 4.95867 95.5191 5.288C95.0338 5.61733 94.5398 6.094 94.0371 6.718C93.1705 7.81 92.4078 8.824 91.7491 9.76C91.0905 10.6787 90.4838 11.5973 89.9291 12.516C89.3918 13.4347 88.8545 14.414 88.3171 15.454C87.7971 16.494 87.2425 17.664 86.6531 18.964C86.0638 20.2467 85.3878 21.7373 84.6251 23.436C84.5038 23.7133 84.2958 23.9127 84.0011 24.034C83.7238 24.1553 83.4638 24.216 83.2211 24.216C82.9785 24.216 82.7791 24.164 82.6231 24.06C82.4671 23.956 82.4151 23.8087 82.4671 23.618C82.9178 22.9247 83.4031 22.0493 83.9231 20.992C84.4431 19.9347 84.9631 18.782 85.4831 17.534C86.0205 16.2687 86.5145 14.9947 86.9651 13.712C87.4331 12.412 87.8318 11.19 88.1611 10.046C88.4905 8.88467 88.7158 7.87933 88.8371 7.03C88.8718 6.75267 88.8978 6.49267 88.9151 6.25C88.9325 6.00733 88.9411 5.77333 88.9411 5.548C88.9411 4.21333 88.6551 3.26 88.0831 2.688C87.5285 2.116 86.8091 1.83 85.9251 1.83C85.1798 1.83 84.3651 2.00333 83.4811 2.35C82.6145 2.67933 81.7305 3.13867 80.8291 3.728C79.9451 4.31733 79.0958 5.002 78.2811 5.782C77.4665 6.54467 76.7471 7.368 76.1231 8.252C75.4991 9.11867 75.0225 10.0027 74.6931 10.904C74.4678 11.5453 74.2945 12.1607 74.1731 12.75C74.0691 13.322 74.0171 13.8593 74.0171 14.362C74.0171 15.3327 74.1905 16.156 74.5371 16.832C74.9011 17.508 75.3778 18.0193 75.9671 18.366C76.5738 18.7127 77.2238 18.886 77.9171 18.886C78.1598 18.886 78.4285 18.86 78.7231 18.808C79.0351 18.7387 79.2951 18.6693 79.5031 18.6C80.0058 18.4093 80.4911 18.1147 80.9591 17.716C81.4271 17.3 81.8431 16.8233 82.2071 16.286C82.5711 15.7487 82.8571 15.2027 83.0651 14.648C83.2731 14.0933 83.3771 13.5733 83.3771 13.088C83.3771 12.5853 83.2385 12.1693 82.9611 11.84C82.6838 11.5107 82.2418 11.346 81.6351 11.346C81.5658 11.346 81.4878 11.3547 81.4011 11.372C81.3318 11.372 81.2538 11.372 81.1671 11.372H81.0891C80.9678 11.372 80.8551 11.3547 80.7511 11.32C80.6471 11.268 80.5951 11.2073 80.5951 11.138C80.5951 11.0687 80.6818 10.9907 80.8551 10.904C81.0458 10.8173 81.3838 10.774 81.8691 10.774C82.6491 10.774 83.2298 11.008 83.6111 11.476C84.0098 11.9267 84.2091 12.5073 84.2091 13.218C84.2091 13.8593 84.0358 14.5527 83.6891 15.298C83.3425 16.0433 82.8225 16.754 82.1291 17.43C81.4358 18.106 80.5605 18.6607 79.5031 19.094C78.8791 19.3367 78.2725 19.458 77.6831 19.458C76.8165 19.458 75.9931 19.2413 75.2131 18.808C74.4331 18.3573 73.8005 17.7247 73.3151 16.91C72.8298 16.078 72.5871 15.0987 72.5871 13.972C72.5871 13.4693 72.6391 12.9407 72.7431 12.386C72.8645 11.814 73.0551 11.2247 73.3151 10.618C73.8871 9.28333 74.6585 8.05267 75.6291 6.926C76.6171 5.782 77.7091 4.794 78.9051 3.962C80.1011 3.11267 81.3145 2.454 82.5451 1.986C83.7758 1.518 84.9198 1.284 85.9771 1.284C87.2598 1.284 88.3171 1.66533 89.1491 2.428C89.9985 3.19067 90.4231 4.42133 90.4231 6.12C90.4231 6.24133 90.4145 6.406 90.3971 6.614C90.3971 6.80467 90.3885 6.952 90.3711 7.056C90.2671 7.94 90.0851 8.824 89.8251 9.708C89.5825 10.592 89.3138 11.4413 89.0191 12.256C88.9671 12.3947 88.9238 12.542 88.8891 12.698C88.8718 12.8367 88.8631 12.932 88.8631 12.984C88.8631 13.0707 88.8805 13.114 88.9151 13.114C88.9845 13.114 89.1231 12.932 89.3311 12.568C89.7298 11.84 90.0851 11.2073 90.3971 10.67C90.7265 10.1153 91.0471 9.61267 91.3591 9.162C91.6711 8.71133 92.0091 8.252 92.3731 7.784C92.7371 7.316 93.1531 6.796 93.6211 6.224C94.1585 5.58267 94.7738 5.07133 95.4671 4.69C96.1605 4.30867 96.8278 4.118 97.4691 4.118C98.0411 4.118 98.5265 4.30867 98.9251 4.69C99.3238 5.07133 99.5231 5.72133 99.5231 6.64C99.5231 6.744 99.5231 6.83067 99.5231 6.9C99.5231 6.96933 99.5145 7.07333 99.4971 7.212C99.3411 8.876 99.0118 10.514 98.5091 12.126C98.0065 13.7207 97.4865 15.3327 96.9491 16.962C97.4865 16.13 98.2145 15.0727 99.1331 13.79C100.052 12.5073 101.057 11.1813 102.149 9.812C103.484 8.148 104.723 6.9 105.867 6.068C107.011 5.236 107.956 4.82 108.701 4.82C109.637 4.82 110.105 5.392 110.105 6.536C110.105 6.96933 110.018 7.48933 109.845 8.096C109.689 8.70267 109.438 9.344 109.091 10.02C108.71 10.7827 108.285 11.6667 107.817 12.672C107.366 13.66 106.933 14.7 106.517 15.792C106.101 16.884 105.754 17.9587 105.477 19.016C105.217 20.056 105.087 21.018 105.087 21.902C105.087 22.8553 105.304 23.6267 105.737 24.216C106.188 24.8227 106.959 25.1087 108.051 25.074H108.207C108.467 25.074 108.597 25.126 108.597 25.23C108.597 25.2993 108.51 25.3687 108.337 25.438C108.164 25.5073 107.921 25.5247 107.609 25.49ZM113.926 22.578C113.735 22.5953 113.518 22.552 113.276 22.448C113.033 22.344 112.816 22.1533 112.626 21.876C112.452 21.5987 112.366 21.2087 112.366 20.706C112.366 20.29 112.444 19.7873 112.6 19.198C112.392 19.5273 112.123 19.9347 111.794 20.42C111.464 20.888 111.109 21.304 110.728 21.668C110.398 21.98 110.086 22.2053 109.792 22.344C109.497 22.4827 109.228 22.552 108.986 22.552C108.535 22.552 108.171 22.3527 107.894 21.954C107.616 21.538 107.478 21.0007 107.478 20.342C107.478 19.6487 107.651 18.86 107.998 17.976C108.344 17.092 108.908 16.1733 109.688 15.22C110.19 14.6133 110.797 14.128 111.508 13.764C112.236 13.3827 112.946 13.192 113.64 13.192C114.038 13.192 114.42 13.2613 114.784 13.4C115.148 13.5213 115.468 13.7293 115.746 14.024C115.867 14.1453 115.928 14.284 115.928 14.44C115.928 14.544 115.884 14.6307 115.798 14.7C115.711 14.7693 115.598 14.7867 115.46 14.752C115.269 14.1453 114.862 13.842 114.238 13.842C113.943 13.842 113.605 13.9373 113.224 14.128C112.634 14.44 112.019 14.9513 111.378 15.662C110.754 16.3727 110.208 17.1093 109.74 17.872C109.67 17.976 109.558 18.1753 109.402 18.47C109.263 18.7647 109.124 19.094 108.986 19.458C108.847 19.822 108.752 20.1773 108.7 20.524C108.682 20.628 108.674 20.706 108.674 20.758C108.674 20.7927 108.674 20.8533 108.674 20.94C108.674 21.512 108.89 21.798 109.324 21.798C109.844 21.798 110.433 21.4167 111.092 20.654C111.542 20.0993 111.95 19.5187 112.314 18.912C112.678 18.3053 113.05 17.6553 113.432 16.962C113.692 16.494 113.934 16.104 114.16 15.792C114.385 15.48 114.706 15.324 115.122 15.324C115.312 15.324 115.503 15.35 115.694 15.402C115.884 15.454 116.084 15.4627 116.292 15.428C116.153 15.5667 115.962 15.8267 115.72 16.208C115.494 16.5893 115.252 17.0227 114.992 17.508C114.732 17.9933 114.498 18.4873 114.29 18.99C114.082 19.4927 113.934 19.926 113.848 20.29C113.83 20.394 113.804 20.5413 113.77 20.732C113.752 20.9227 113.744 21.0613 113.744 21.148C113.744 21.6333 113.882 21.876 114.16 21.876C114.437 21.876 114.732 21.7113 115.044 21.382C115.373 21.0527 115.694 20.6453 116.006 20.16C116.318 19.6747 116.604 19.1893 116.864 18.704C117.124 18.2013 117.332 17.794 117.488 17.482C117.557 17.3087 117.661 17.222 117.8 17.222C117.886 17.222 117.93 17.2827 117.93 17.404C117.93 17.456 117.904 17.5513 117.852 17.69C117.644 18.1233 117.392 18.6173 117.098 19.172C116.803 19.7093 116.482 20.238 116.136 20.758C115.789 21.2607 115.425 21.6853 115.044 22.032C114.68 22.3613 114.307 22.5433 113.926 22.578ZM118.724 22.5C118.239 22.5 117.805 22.3353 117.424 22.006C117.043 21.6593 116.852 21.122 116.852 20.394C116.852 19.822 116.956 19.12 117.164 18.288C117.389 17.4387 117.658 16.5633 117.97 15.662C118.299 14.7433 118.62 13.9113 118.932 13.166H117.554C117.433 13.166 117.372 13.0793 117.372 12.906C117.372 12.8193 117.389 12.7413 117.424 12.672C117.476 12.6027 117.545 12.568 117.632 12.568H119.192C119.487 11.9093 119.799 11.268 120.128 10.644C120.457 10.02 120.778 9.43067 121.09 8.876C121.489 8.18267 121.913 7.66267 122.364 7.316C122.815 6.96933 123.205 6.796 123.534 6.796C123.794 6.796 124.011 6.9 124.184 7.108C124.357 7.29867 124.444 7.59333 124.444 7.992C124.444 8.23467 124.392 8.57267 124.288 9.006C124.184 9.422 124.019 9.864 123.794 10.332C123.673 10.5747 123.499 10.9213 123.274 11.372C123.066 11.8227 122.858 12.2213 122.65 12.568H123.898C124.019 12.568 124.08 12.6547 124.08 12.828C124.08 12.8973 124.063 12.9753 124.028 13.062C123.993 13.1313 123.941 13.166 123.872 13.166H122.338C121.905 13.9113 121.411 14.6393 120.856 15.35C120.301 16.0607 119.643 16.7713 118.88 17.482C118.828 17.638 118.759 17.8633 118.672 18.158C118.603 18.4527 118.533 18.756 118.464 19.068C118.412 19.3627 118.36 19.614 118.308 19.822C118.273 20.03 118.256 20.134 118.256 20.134C118.204 20.3593 118.178 20.5673 118.178 20.758C118.178 21.122 118.265 21.3907 118.438 21.564C118.611 21.72 118.811 21.798 119.036 21.798C119.175 21.798 119.313 21.7807 119.452 21.746C119.591 21.694 119.747 21.6073 119.92 21.486C120.527 21.0527 121.055 20.4633 121.506 19.718C121.974 18.9727 122.381 18.2533 122.728 17.56C122.832 17.352 122.936 17.248 123.04 17.248C123.109 17.248 123.144 17.3 123.144 17.404C123.144 17.456 123.118 17.5513 123.066 17.69C122.685 18.4873 122.364 19.1287 122.104 19.614C121.844 20.0993 121.593 20.5067 121.35 20.836C121.107 21.148 120.821 21.46 120.492 21.772C120.249 22.0147 119.972 22.1967 119.66 22.318C119.348 22.4393 119.036 22.5 118.724 22.5ZM120.778 12.568H122.104C122.347 12.1173 122.572 11.6753 122.78 11.242C123.005 10.8087 123.205 10.3753 123.378 9.942C123.499 9.66467 123.603 9.35267 123.69 9.006C123.777 8.65933 123.82 8.39067 123.82 8.2C123.82 7.94 123.759 7.81 123.638 7.81C123.551 7.81 123.421 7.888 123.248 8.044C123.092 8.18267 122.893 8.42533 122.65 8.772C122.338 9.20533 122.026 9.76867 121.714 10.462C121.419 11.138 121.107 11.84 120.778 12.568ZM119.088 16.65C119.591 16.13 120.059 15.5753 120.492 14.986C120.943 14.3967 121.359 13.79 121.74 13.166H120.518C120.241 13.8073 119.981 14.4313 119.738 15.038C119.495 15.6447 119.279 16.182 119.088 16.65ZM124.527 22.604C123.885 22.604 123.305 22.396 122.785 21.98C122.282 21.564 122.031 20.9313 122.031 20.082C122.031 19.302 122.221 18.47 122.603 17.586C122.984 16.6847 123.469 15.896 124.059 15.22C124.561 14.6307 125.125 14.1453 125.749 13.764C126.373 13.3827 126.962 13.192 127.517 13.192C127.898 13.192 128.227 13.296 128.505 13.504C128.799 13.7293 128.947 14.05 128.947 14.466C128.947 14.8993 128.782 15.376 128.453 15.896C128.123 16.416 127.655 16.9013 127.049 17.352C126.789 17.5427 126.459 17.7247 126.061 17.898C125.662 18.0713 125.263 18.2187 124.865 18.34C124.466 18.444 124.137 18.496 123.877 18.496C123.79 18.704 123.703 18.9813 123.617 19.328C123.547 19.6747 123.513 20.03 123.513 20.394C123.513 20.8273 123.599 21.2173 123.773 21.564C123.946 21.9107 124.267 22.084 124.735 22.084C125.307 22.084 125.827 21.9193 126.295 21.59C126.763 21.2607 127.179 20.8533 127.543 20.368C127.907 19.8653 128.21 19.3627 128.453 18.86C128.713 18.3573 128.921 17.9327 129.077 17.586C129.181 17.3433 129.319 17.222 129.493 17.222C129.579 17.222 129.623 17.2653 129.623 17.352C129.623 17.4213 129.597 17.508 129.545 17.612C129.302 18.132 129.042 18.6867 128.765 19.276C128.487 19.848 128.158 20.394 127.777 20.914C127.395 21.4167 126.936 21.824 126.399 22.136C125.879 22.448 125.255 22.604 124.527 22.604ZM124.059 18.028C124.301 18.028 124.709 17.9413 125.281 17.768C125.853 17.5773 126.373 17.2827 126.841 16.884C127.291 16.4853 127.638 16.052 127.881 15.584C128.123 15.0987 128.245 14.6913 128.245 14.362C128.245 13.9807 128.106 13.79 127.829 13.79C127.621 13.79 127.335 13.9287 126.971 14.206C126.607 14.4833 126.156 14.9513 125.619 15.61C125.289 16.026 124.977 16.4767 124.683 16.962C124.388 17.4473 124.18 17.8027 124.059 18.028Z" fill="#70FFCB"/>
</svg>
